<svg width="60" height="60" viewBox="0 0 60 60" fill="none" xmlns="http://www.w3.org/2000/svg">
<ellipse cx="30" cy="30" rx="25" ry="30" fill="#473723"/>
<circle cx="30" cy="30" r="29.5" stroke="black"/>
<path d="M32.28 26.368C32.28 27.6907 31.9173 28.8747 31.192 29.92C30.4667 30.944 29.4747 31.7973 28.216 32.48C29.0267 33.0347 29.6667 33.7173 30.136 34.528C30.6267 35.3173 30.872 36.192 30.872 37.152C30.872 38.304 30.52 39.4453 29.816 40.576C29.1333 41.6853 28.216 42.6773 27.064 43.552C25.912 44.4053 24.6 45.0987 23.128 45.632C21.656 46.1653 20.152 46.432 18.616 46.432C16.952 46.432 15.4907 46.112 14.232 45.472C12.9947 44.8533 12.024 43.968 11.32 42.816C11.5333 42.176 11.8107 41.3867 12.152 40.448C12.5147 39.488 12.9093 38.4853 13.336 37.44C13.7627 36.3733 14.1893 35.3173 14.616 34.272C15.064 33.2267 15.48 32.288 15.864 31.456C16.6747 29.6427 17.4 28.1387 18.04 26.944C18.68 25.7493 19.2667 24.8 19.8 24.096C18.6267 24.4587 17.56 24.8747 16.6 25.344C15.64 25.792 14.936 26.2293 14.488 26.656C14.296 26.528 14.0933 26.336 13.88 26.08C13.688 25.824 13.496 25.5467 13.304 25.248C13.1333 24.928 12.984 24.608 12.856 24.288C12.7493 23.968 12.6853 23.68 12.664 23.424C13.2187 23.04 13.9333 22.6773 14.808 22.336C15.704 21.9733 16.6747 21.664 17.72 21.408C18.7653 21.152 19.832 20.9493 20.92 20.8C22.0293 20.6507 23.0853 20.576 24.088 20.576C26.648 20.576 28.6533 21.088 30.104 22.112C31.5547 23.136 32.28 24.5547 32.28 26.368ZM20.088 34.016C19.6827 33.824 19.3093 33.536 18.968 33.152C18.4773 34.24 18.008 35.3067 17.56 36.352C17.1333 37.3973 16.7493 38.368 16.408 39.264C16.0667 40.16 15.7893 40.9387 15.576 41.6C15.3627 42.2613 15.2453 42.7413 15.224 43.04C15.5227 43.2107 15.8747 43.3387 16.28 43.424C16.7067 43.5093 17.2293 43.552 17.848 43.552C19.2987 43.552 20.6853 43.3493 22.008 42.944C23.3307 42.5387 24.4933 41.9947 25.496 41.312C26.4987 40.608 27.2987 39.808 27.896 38.912C28.4933 38.016 28.792 37.0773 28.792 36.096C28.792 34.688 28.184 33.6747 26.968 33.056C25.304 33.7387 23.4267 34.08 21.336 34.08C21.0373 34.08 20.8027 34.08 20.632 34.08C20.4827 34.08 20.3013 34.0587 20.088 34.016ZM26.296 22.912C25.848 22.912 25.368 22.944 24.856 23.008C24.3653 23.0507 23.8427 23.1253 23.288 23.232C23.3733 23.3173 23.4373 23.4133 23.48 23.52C23.544 23.6053 23.5973 23.7013 23.64 23.808C23.448 24.064 23.2133 24.4373 22.936 24.928C22.6587 25.4187 22.3493 25.9947 22.008 26.656C21.6667 27.296 21.304 28.0107 20.92 28.8C20.5573 29.5893 20.184 30.4 19.8 31.232C20.1627 31.1467 20.6 31.0827 21.112 31.04C21.6453 30.976 22.168 30.944 22.68 30.944C22.9573 30.944 23.224 30.9547 23.48 30.976C23.7573 30.9973 24.024 31.0293 24.28 31.072C25.304 30.9013 26.2213 30.656 27.032 30.336C27.864 29.9947 28.5787 29.6107 29.176 29.184C29.7733 28.736 30.232 28.2453 30.552 27.712C30.872 27.1787 31.032 26.6133 31.032 26.016C31.032 24.992 30.6267 24.224 29.816 23.712C29.0053 23.1787 27.832 22.912 26.296 22.912ZM46.64 30.656C47.3227 30.656 47.856 30.848 48.24 31.232C48.6453 31.616 48.848 32.1493 48.848 32.832C48.848 33.0027 48.8373 33.184 48.816 33.376C48.7947 33.5467 48.752 33.696 48.688 33.824C48.4107 33.7813 48.1013 33.7493 47.76 33.728C47.4187 33.6853 47.0133 33.664 46.544 33.664C45.584 33.664 44.624 33.7493 43.664 33.92C42.704 34.0907 41.7867 34.2293 40.912 34.336C39.952 36.5973 39.1627 38.72 38.544 40.704C37.9253 42.688 37.4453 44.6507 37.104 46.592C36.3787 46.4213 35.7387 46.112 35.184 45.664C34.6293 45.216 34.1067 44.5867 33.616 43.776C33.7653 43.4347 33.9467 43.0293 34.16 42.56C34.3733 42.0693 34.6293 41.4613 34.928 40.736C35.2267 39.9893 35.5787 39.0933 35.984 38.048C36.4107 36.9813 36.912 35.712 37.488 34.24C36.592 33.9413 36.0053 33.4187 35.728 32.672C35.8347 32.5653 36.1333 32.448 36.624 32.32C37.1147 32.1707 37.712 32.0107 38.416 31.84C38.736 31.008 39.0133 30.272 39.248 29.632C39.4827 28.9707 39.696 28.352 39.888 27.776C40.08 27.1787 40.2507 26.6027 40.4 26.048C40.5707 25.472 40.72 24.864 40.848 24.224H40.688C39.8773 24.224 39.216 24.032 38.704 23.648C38.2133 23.264 37.968 22.7627 37.968 22.144C37.968 21.9733 37.9893 21.7707 38.032 21.536C38.096 21.3013 38.1707 21.0987 38.256 20.928C38.6613 20.992 39.056 21.0347 39.44 21.056C39.8453 21.0773 40.368 21.088 41.008 21.088C42.352 21.088 43.6107 21.056 44.784 20.992C45.9573 20.9067 47.0133 20.8213 47.952 20.736C48.912 20.6507 49.7333 20.576 50.416 20.512C51.0987 20.4267 51.6213 20.384 51.984 20.384C52.4747 20.384 52.912 20.64 53.296 21.152C53.68 21.664 53.9787 22.3893 54.192 23.328C53.5093 23.264 52.9547 23.2213 52.528 23.2C52.1227 23.1787 51.76 23.168 51.44 23.168C50.352 23.168 49.3493 23.2213 48.432 23.328C47.536 23.4133 46.6827 23.52 45.872 23.648C45.744 23.84 45.5947 24.0853 45.424 24.384C45.2747 24.6827 45.072 25.1093 44.816 25.664C44.56 26.1973 44.2293 26.9013 43.824 27.776C43.44 28.6507 42.9493 29.76 42.352 31.104C43.184 30.976 43.9733 30.8693 44.72 30.784C45.488 30.6987 46.128 30.656 46.64 30.656Z" fill="#FFF5E8"/>
</svg>
